<svg aria-hidden="true" style="position:absolute;width:0;height:0;overflow:hidden" xmlns="http://www.w3.org/2000/svg"><defs><symbol id="icon-hero-map" viewBox="0 0 32 32"><path fill="#999" style="fill:var(--color1, #999)" d="M16 14.667a2 2 0 1 0 .001-3.999A2 2 0 0 0 16 14.667z"/><path fill="#999" style="fill:var(--color1, #999)" d="M16 2.667a10.667 10.667 0 0 0-10.667 10.56c0 7.307 9.4 15.44 9.8 15.787a1.33 1.33 0 0 0 1.734 0c.467-.347 9.8-8.48 9.8-15.787A10.667 10.667 0 0 0 16 2.667zm0 14.666a4.668 4.668 0 0 1-3.301-7.966 4.668 4.668 0 1 1 3.299 7.968z"/></symbol><symbol id="icon-hero-period" viewBox="0 0 32 32"><path fill="#999" style="fill:var(--color1, #999)" d="M24 5.333h-1.333V4a1.334 1.334 0 0 0-2.668 0v1.333h-8V4a1.335 1.335 0 0 0-2.277-.943c-.25.251-.391.589-.391.943v1.333H7.998a4.003 4.003 0 0 0-4 4v16a4.003 4.003 0 0 0 4 4h16a4.003 4.003 0 0 0 4-4v-16a4.003 4.003 0 0 0-4-4zM10.667 22.667a1.332 1.332 0 0 1-1.308-1.593 1.332 1.332 0 0 1 2.416-.481 1.337 1.337 0 0 1-.166 1.684c-.251.25-.589.391-.943.391zm10.666 0H16a1.334 1.334 0 0 1 0-2.668h5.333a1.334 1.334 0 0 1 0 2.668zm4-8H6.666V9.334A1.335 1.335 0 0 1 8 8h1.333v1.333a1.335 1.335 0 0 0 2.277.943c.25-.251.391-.589.391-.943V8h8v1.333a1.334 1.334 0 0 0 2.668 0V8h1.333a1.335 1.335 0 0 1 1.334 1.334v5.333z"/></symbol><symbol id="icon-hero-person" viewBox="0 0 32 32"><path fill="#999" style="fill:var(--color1, #999)" d="M16 14.667a5.333 5.333 0 1 0 .004-10.662 5.333 5.333 0 0 0-.006 10.66zM24 28a1.334 1.334 0 0 0 1.334-1.334 9.333 9.333 0 0 0-18.668 0A1.335 1.335 0 0 0 8 28h16z"/><symbol id="icon-hero-glass" viewBox="0 0 32 32">
<path fill="#fff" style="fill: var(--color1, #fff)" d="M27.613 25.72l-4.533-4.52c1.463-1.863 2.256-4.164 2.253-6.533 0-2.11-0.626-4.172-1.798-5.926s-2.838-3.121-4.787-3.929-4.094-1.019-6.163-0.607c-2.069 0.412-3.97 1.427-5.462 2.919s-2.508 3.392-2.919 5.462c-0.412 2.069-0.2 4.214 0.607 6.163s2.175 3.615 3.929 4.787c1.754 1.172 3.816 1.798 5.926 1.798 2.369 0.003 4.67-0.791 6.533-2.253l4.52 4.533c0.124 0.125 0.271 0.224 0.434 0.292s0.337 0.103 0.513 0.103 0.35-0.035 0.513-0.103c0.162-0.068 0.31-0.167 0.434-0.292s0.224-0.271 0.292-0.434c0.068-0.163 0.103-0.337 0.103-0.513s-0.035-0.35-0.103-0.513c-0.068-0.162-0.167-0.31-0.292-0.434v0zM6.667 14.667c0-1.582 0.469-3.129 1.348-4.445s2.128-2.341 3.59-2.946c1.462-0.606 3.070-0.764 4.622-0.455s2.977 1.071 4.096 2.189c1.119 1.119 1.881 2.544 2.189 4.096s0.15 3.16-0.455 4.622-1.631 2.711-2.947 3.59c-1.316 0.879-2.862 1.348-4.445 1.348-2.122 0-4.157-0.843-5.657-2.343s-2.343-3.535-2.343-5.657z"></path>
</symbol>
<symbol id="icon-service1" viewBox="0 0 32 32">
<path fill="#f9d15c" style="fill: var(--color1, #f9d15c)" d="M13.176 0c7.277 0 13.176 5.899 13.176 13.176s-5.899 13.176-13.176 13.176c-7.277 0-13.176-5.899-13.176-13.176s5.899-13.176 13.176-13.176z"></path>
<path fill="#222" style="fill: var(--color2, #222)" d="M30.367 8.865h-16.661c-0.9 0-1.633 0.732-1.633 1.633v1.453l-1.579-1.579-2.675 2.675 1.214 1.214-3.386 5.319 3.438 5.375h-1.298c-1.008 0-1.828 0.82-1.828 1.828v1.999h9.111v-1.999c0-1.008-0.82-1.828-1.828-1.828h-2.299l-3.44-5.377 2.269-3.564c-0.076 1.108 0.307 2.242 1.152 3.088l0.649 0.649 0.499-0.499v3.48c0 0.9 0.732 1.633 1.633 1.633h4.67l-0.276 2.852h-1.291v1.565h10.456v-1.565h-1.291l-0.276-2.852h4.67c0.9 0 1.633-0.732 1.633-1.633v-12.234c0-0.9-0.732-1.633-1.633-1.633zM13.243 26.52c0.145 0 0.263 0.118 0.263 0.263v0.434h-5.981v-0.434c0-0.145 0.118-0.263 0.263-0.263h5.455zM11.103 13.311c-0.014 0.013-0.029 0.025-0.043 0.038-0.045 0.041-0.090 0.083-0.133 0.127-0.001 0.001-0.002 0.002-0.002 0.002s-0.002 0.002-0.002 0.002c-0.043 0.043-0.085 0.088-0.126 0.133-0.013 0.014-0.026 0.029-0.038 0.043-0.018 0.020-0.037 0.041-0.054 0.062l-0.671-0.671 0.462-0.462 0.671 0.671c-0.021 0.018-0.041 0.037-0.062 0.055zM11.636 17.477c-0.388-0.688-0.413-1.526-0.073-2.233 0.002-0.005 0.005-0.010 0.007-0.015 0.012-0.024 0.024-0.049 0.037-0.073 0.003-0.006 0.007-0.013 0.010-0.019 0.012-0.023 0.025-0.045 0.038-0.068 0.004-0.007 0.009-0.015 0.013-0.022 0.013-0.021 0.026-0.042 0.039-0.063 0.005-0.008 0.011-0.017 0.017-0.025 0.013-0.020 0.026-0.039 0.040-0.059 0.007-0.010 0.014-0.019 0.021-0.029 0.013-0.018 0.026-0.035 0.039-0.053 0.009-0.012 0.019-0.023 0.028-0.035 0.012-0.015 0.024-0.030 0.036-0.045s0.027-0.031 0.040-0.046c0.009-0.011 0.019-0.021 0.028-0.032 0.024-0.026 0.048-0.051 0.073-0.076 0.028-0.028 0.056-0.055 0.085-0.081 0.008-0.008 0.017-0.015 0.025-0.022 0.021-0.019 0.042-0.037 0.064-0.055 0.009-0.008 0.019-0.015 0.028-0.023 0.021-0.017 0.043-0.034 0.065-0.050 0.009-0.007 0.018-0.013 0.027-0.020 0.023-0.017 0.047-0.033 0.071-0.049 0.008-0.005 0.015-0.010 0.023-0.015 0.027-0.017 0.054-0.034 0.081-0.051 0.005-0.003 0.010-0.006 0.015-0.009 0.202-0.118 0.417-0.205 0.638-0.259 0.004-0.001 0.007-0.002 0.011-0.003 0.035-0.008 0.070-0.016 0.105-0.023 0.003-0.001 0.006-0.001 0.009-0.002 0.036-0.007 0.072-0.013 0.108-0.018 0.002-0 0.004-0.001 0.006-0.001 0.036-0.005 0.073-0.010 0.11-0.013 0.002-0 0.004-0 0.005-0.001 0.037-0.003 0.073-0.006 0.11-0.008 0.002-0 0.004-0 0.007-0 0.036-0.002 0.071-0.002 0.107-0.003 0.003 0 0.007-0 0.010-0 0.101 0 0.201 0.007 0.302 0.019 0.002 0 0.004 0.001 0.007 0.001 0.044 0.006 0.087 0.013 0.13 0.021 0.013 0.002 0.025 0.005 0.038 0.007 0.033 0.007 0.067 0.014 0.1 0.023 0.015 0.004 0.029 0.007 0.044 0.011 0.039 0.011 0.078 0.022 0.117 0.034 0.020 0.007 0.040 0.014 0.061 0.021 0.026 0.009 0.051 0.018 0.076 0.028 0.022 0.009 0.044 0.018 0.066 0.027 0.020 0.009 0.040 0.018 0.061 0.027 0.022 0.010 0.045 0.020 0.067 0.031s0.042 0.022 0.063 0.033c0.018 0.009 0.035 0.018 0.053 0.028l-3.287 3.287zM19.672 27.217l0.276-2.852h4.177l0.276 2.852h-4.728zM30.435 22.733c0 0.038-0.031 0.068-0.068 0.068h-16.661c-0.038 0-0.068-0.031-0.068-0.068v-1.457h16.797v1.457h-0zM30.435 19.711h-16.797v-2.023l3.561-3.561-0.649-0.649c-0.395-0.395-0.854-0.689-1.343-0.883-0.004-0.002-0.009-0.003-0.013-0.005-0.056-0.022-0.111-0.043-0.168-0.062-0.016-0.006-0.033-0.011-0.050-0.016-0.044-0.014-0.088-0.028-0.132-0.041-0.028-0.008-0.057-0.015-0.085-0.023-0.032-0.009-0.065-0.017-0.097-0.025-0.039-0.009-0.077-0.017-0.116-0.025-0.022-0.005-0.045-0.009-0.067-0.014-0.047-0.009-0.095-0.017-0.142-0.024-0.014-0.002-0.028-0.004-0.041-0.006-0.054-0.008-0.109-0.014-0.163-0.020-0.007-0.001-0.014-0.001-0.022-0.002-0.059-0.006-0.119-0.010-0.179-0.013-0.002-0-0.005-0-0.007-0-0.095-0.005-0.191-0.007-0.287-0.005v-1.817c0-0.038 0.031-0.068 0.068-0.068h16.661c0.038 0 0.068 0.031 0.068 0.068v9.212h0z"></path>
</symbol>
<symbol id="icon-service2" viewBox="0 0 32 32">
<path fill="#f9d15c" style="fill: var(--color1, #f9d15c)" d="M13.176 0c7.277 0 13.176 5.899 13.176 13.176s-5.899 13.176-13.176 13.176c-7.277 0-13.176-5.899-13.176-13.176s5.899-13.176 13.176-13.176z"></path>
<path fill="#222" style="fill: var(--color2, #222)" d="M19.566 10.701h-3.061c-0.433 0-0.772 0.354-0.772 0.772v10.995c0 0.426 0.346 0.772 0.772 0.772s0.772-0.346 0.772-0.772v-4.008c0.716-0.004 1.765-0.009 2.289-0.009 1.035 0 2.016-0.4 2.763-1.128 0.756-0.736 1.173-1.712 1.173-2.747s-0.416-2.011-1.173-2.747c-0.747-0.727-1.728-1.128-2.763-1.128zM19.566 16.907c-0.521 0-1.555 0.005-2.272 0.009-0.013-2.405-0.006-1.596-0.015-4.671h2.287c1.296 0 2.391 1.067 2.391 2.331s-1.095 2.331-2.391 2.331z"></path>
<path fill="#222" style="fill: var(--color2, #222)" d="M26.83 8.964c-2.139-2.139-4.982-3.317-8.007-3.317s-5.868 1.178-8.007 3.317c-6.217 6.217-3.264 16.935 5.33 19.012v2.738c0 0.71 0.577 1.287 1.287 1.287h2.779c0.71 0 1.287-0.577 1.287-1.287v-2.738c8.603-2.079 11.544-12.799 5.331-19.012zM19.956 30.456h-2.265v-2.218c0.751 0.075 1.514 0.075 2.265 0v2.218zM20.589 26.591c-5.953 1.086-11.545-3.453-11.545-9.621 0-5.392 4.387-9.779 9.779-9.779s9.779 4.387 9.779 9.779c0 4.721-3.362 8.772-8.014 9.621z"></path>
</symbol>
<symbol id="icon-service3" viewBox="0 0 32 32">
<path fill="#f9d15c" style="fill: var(--color1, #f9d15c)" d="M13.176 0c7.277 0 13.176 5.899 13.176 13.176s-5.899 13.176-13.176 13.176c-7.277 0-13.176-5.899-13.176-13.176s5.899-13.176 13.176-13.176z"></path>
<path fill="#222" style="fill: var(--color2, #222)" d="M18.772 29.658c0.938 0 1.699-0.76 1.699-1.699s-0.76-1.698-1.699-1.698c-0.938 0-1.699 0.76-1.699 1.698s0.76 1.699 1.699 1.699z"></path>
<path fill="#222" style="fill: var(--color2, #222)" d="M31.724 13.618c-3.383-3.63-7.964-5.629-12.9-5.629s-9.517 1.999-12.9 5.629c-0.388 0.416-0.365 1.067 0.051 1.455s1.067 0.365 1.455-0.051c2.989-3.207 7.036-4.974 11.394-4.974s8.404 1.766 11.394 4.974c0.203 0.217 0.478 0.328 0.753 0.328 0.251 0 0.503-0.092 0.702-0.276 0.416-0.388 0.439-1.039 0.051-1.455z"></path>
<path fill="#222" style="fill: var(--color2, #222)" d="M27.944 17.869c-2.501-2.52-5.74-3.907-9.12-3.907s-6.62 1.388-9.12 3.907c-0.4 0.404-0.398 1.055 0.006 1.456s1.055 0.398 1.456-0.006c2.111-2.127 4.831-3.299 7.659-3.299s5.548 1.171 7.659 3.299c0.201 0.203 0.466 0.304 0.731 0.304 0.262 0 0.524-0.1 0.725-0.299 0.403-0.401 0.406-1.052 0.005-1.456z"></path>
<path fill="#222" style="fill: var(--color2, #222)" d="M23.824 22.133c-1.339-1.327-3.259-2.151-5.010-2.151-0 0-0.001 0-0.001 0h-0.074c-0 0-0 0-0.001 0-1.751 0-3.671 0.824-5.010 2.151-0.404 0.4-0.407 1.052-0.007 1.456 0.201 0.203 0.466 0.305 0.731 0.305 0.262 0 0.524-0.099 0.724-0.298 0.953-0.945 2.351-1.555 3.561-1.555 0 0 0 0 0.001 0h0.075c0 0 0 0 0 0 1.21 0 2.608 0.61 3.561 1.555 0.404 0.4 1.056 0.397 1.456-0.007s0.397-1.056-0.007-1.456z"></path>
</symbol>
<symbol id="icon-service4" viewBox="0 0 32 32">
<path fill="#f9d15c" style="fill: var(--color1, #f9d15c)" d="M13.176 0c7.277 0 13.176 5.899 13.176 13.176s-5.899 13.176-13.176 13.176c-7.277 0-13.176-5.899-13.176-13.176s5.899-13.176 13.176-13.176z"></path>
<path fill="#222" style="fill: var(--color2, #222)" d="M12.596 10.331h12.456c0.426 0 0.772 0.346 0.772 0.772s-0.346 0.772-0.772 0.772h-4.684c-1.277 0-2.316 1.039-2.316 2.316v0.772h1.544v-0.772c0-0.426 0.346-0.772 0.772-0.772h4.684c1.277 0 2.316-1.039 2.316-2.316s-1.039-2.316-2.316-2.316h-12.456c-0.426 0-0.772-0.346-0.772-0.772v-0.772h-1.544v0.772c0 1.277 1.039 2.316 2.316 2.316z"></path>
<path fill="#222" style="fill: var(--color2, #222)" d="M26.477 24.228h2.435c1.703 0 3.088-1.385 3.088-3.088s-1.385-3.088-3.088-3.088h-1.544v-1.544h-17.088v3.912c0 1.98 0.67 3.852 1.881 5.353h-6.514v1.544h3.383l1.544 3.088h16.498l1.544-3.088h3.383v-1.544h-6.514c0.387-0.48 0.718-0.997 0.991-1.544zM28.912 19.596c0.851 0 1.544 0.693 1.544 1.544s-0.693 1.544-1.544 1.544h-1.847c0.198-0.728 0.302-1.488 0.302-2.265v-0.824h1.544zM11.824 20.419v-2.368h14v2.368c0 2.082-0.904 4.018-2.49 5.353h-9.020c-1.586-1.335-2.49-3.271-2.49-5.353zM26.118 28.86h-14.59l-0.772-1.544h16.134l-0.772 1.544z"></path>
</symbol></symbol></defs></svg>