<svg aria-hidden="true" style="position:absolute;width:0;height:0;overflow:hidden" xmlns="http://www.w3.org/2000/svg"><defs><symbol id="icon-hero-map" viewBox="0 0 32 32"><path fill="#999" style="fill:var(--color1, #999)" d="M16 14.667a2 2 0 1 0 .001-3.999A2 2 0 0 0 16 14.667z"/><path fill="#999" style="fill:var(--color1, #999)" d="M16 2.667a10.667 10.667 0 0 0-10.667 10.56c0 7.307 9.4 15.44 9.8 15.787a1.33 1.33 0 0 0 1.734 0c.467-.347 9.8-8.48 9.8-15.787A10.667 10.667 0 0 0 16 2.667zm0 14.666a4.668 4.668 0 0 1-3.301-7.966 4.668 4.668 0 1 1 3.299 7.968z"/></symbol><symbol id="icon-hero-period" viewBox="0 0 32 32"><path fill="#999" style="fill:var(--color1, #999)" d="M24 5.333h-1.333V4a1.334 1.334 0 0 0-2.668 0v1.333h-8V4a1.335 1.335 0 0 0-2.277-.943c-.25.251-.391.589-.391.943v1.333H7.998a4.003 4.003 0 0 0-4 4v16a4.003 4.003 0 0 0 4 4h16a4.003 4.003 0 0 0 4-4v-16a4.003 4.003 0 0 0-4-4zM10.667 22.667a1.332 1.332 0 0 1-1.308-1.593 1.332 1.332 0 0 1 2.416-.481 1.337 1.337 0 0 1-.166 1.684c-.251.25-.589.391-.943.391zm10.666 0H16a1.334 1.334 0 0 1 0-2.668h5.333a1.334 1.334 0 0 1 0 2.668zm4-8H6.666V9.334A1.335 1.335 0 0 1 8 8h1.333v1.333a1.335 1.335 0 0 0 2.277.943c.25-.251.391-.589.391-.943V8h8v1.333a1.334 1.334 0 0 0 2.668 0V8h1.333a1.335 1.335 0 0 1 1.334 1.334v5.333z"/></symbol><symbol id="icon-hero-person" viewBox="0 0 32 32"><path fill="#999" style="fill:var(--color1, #999)" d="M16 14.667a5.333 5.333 0 1 0 .004-10.662 5.333 5.333 0 0 0-.006 10.66zM24 28a1.334 1.334 0 0 0 1.334-1.334 9.333 9.333 0 0 0-18.668 0A1.335 1.335 0 0 0 8 28h16z"/><symbol id="icon-hero-glass" viewBox="0 0 32 32">
<path fill="#fff" style="fill: var(--color1, #fff)" d="M27.613 25.72l-4.533-4.52c1.463-1.863 2.256-4.164 2.253-6.533 0-2.11-0.626-4.172-1.798-5.926s-2.838-3.121-4.787-3.929-4.094-1.019-6.163-0.607c-2.069 0.412-3.97 1.427-5.462 2.919s-2.508 3.392-2.919 5.462c-0.412 2.069-0.2 4.214 0.607 6.163s2.175 3.615 3.929 4.787c1.754 1.172 3.816 1.798 5.926 1.798 2.369 0.003 4.67-0.791 6.533-2.253l4.52 4.533c0.124 0.125 0.271 0.224 0.434 0.292s0.337 0.103 0.513 0.103 0.35-0.035 0.513-0.103c0.162-0.068 0.31-0.167 0.434-0.292s0.224-0.271 0.292-0.434c0.068-0.163 0.103-0.337 0.103-0.513s-0.035-0.35-0.103-0.513c-0.068-0.162-0.167-0.31-0.292-0.434v0zM6.667 14.667c0-1.582 0.469-3.129 1.348-4.445s2.128-2.341 3.59-2.946c1.462-0.606 3.070-0.764 4.622-0.455s2.977 1.071 4.096 2.189c1.119 1.119 1.881 2.544 2.189 4.096s0.15 3.16-0.455 4.622-1.631 2.711-2.947 3.59c-1.316 0.879-2.862 1.348-4.445 1.348-2.122 0-4.157-0.843-5.657-2.343s-2.343-3.535-2.343-5.657z"></path>
</symbol></symbol></defs></svg>