<svg aria-hidden="true" style="position:absolute;width:0;height:0;overflow:hidden" xmlns="http://www.w3.org/2000/svg"><defs><symbol id="icon-hero-map" viewBox="0 0 32 32"><path fill="#999" style="fill:var(--color1, #999)" d="M16 14.667a2 2 0 1 0 .001-3.999A2 2 0 0 0 16 14.667z"/><path fill="#999" style="fill:var(--color1, #999)" d="M16 2.667a10.667 10.667 0 0 0-10.667 10.56c0 7.307 9.4 15.44 9.8 15.787a1.33 1.33 0 0 0 1.734 0c.467-.347 9.8-8.48 9.8-15.787A10.667 10.667 0 0 0 16 2.667zm0 14.666a4.668 4.668 0 0 1-3.301-7.966 4.668 4.668 0 1 1 3.299 7.968z"/></symbol><symbol id="icon-hero-period" viewBox="0 0 32 32"><path fill="#999" style="fill:var(--color1, #999)" d="M24 5.333h-1.333V4a1.334 1.334 0 0 0-2.668 0v1.333h-8V4a1.335 1.335 0 0 0-2.277-.943c-.25.251-.391.589-.391.943v1.333H7.998a4.003 4.003 0 0 0-4 4v16a4.003 4.003 0 0 0 4 4h16a4.003 4.003 0 0 0 4-4v-16a4.003 4.003 0 0 0-4-4zM10.667 22.667a1.332 1.332 0 0 1-1.308-1.593 1.332 1.332 0 0 1 2.416-.481 1.337 1.337 0 0 1-.166 1.684c-.251.25-.589.391-.943.391zm10.666 0H16a1.334 1.334 0 0 1 0-2.668h5.333a1.334 1.334 0 0 1 0 2.668zm4-8H6.666V9.334A1.335 1.335 0 0 1 8 8h1.333v1.333a1.335 1.335 0 0 0 2.277.943c.25-.251.391-.589.391-.943V8h8v1.333a1.334 1.334 0 0 0 2.668 0V8h1.333a1.335 1.335 0 0 1 1.334 1.334v5.333z"/></symbol><symbol id="icon-hero-person" viewBox="0 0 32 32"><path fill="#999" style="fill:var(--color1, #999)" d="M16 14.667a5.333 5.333 0 1 0 .004-10.662 5.333 5.333 0 0 0-.006 10.66zM24 28a1.334 1.334 0 0 0 1.334-1.334 9.333 9.333 0 0 0-18.668 0A1.335 1.335 0 0 0 8 28h16z"/><symbol id="icon-hero-glass" viewBox="0 0 32 32">
<path fill="#fff" style="fill: var(--color1, #fff)" d="M27.613 25.72l-4.533-4.52c1.463-1.863 2.256-4.164 2.253-6.533 0-2.11-0.626-4.172-1.798-5.926s-2.838-3.121-4.787-3.929-4.094-1.019-6.163-0.607c-2.069 0.412-3.97 1.427-5.462 2.919s-2.508 3.392-2.919 5.462c-0.412 2.069-0.2 4.214 0.607 6.163s2.175 3.615 3.929 4.787c1.754 1.172 3.816 1.798 5.926 1.798 2.369 0.003 4.67-0.791 6.533-2.253l4.52 4.533c0.124 0.125 0.271 0.224 0.434 0.292s0.337 0.103 0.513 0.103 0.35-0.035 0.513-0.103c0.162-0.068 0.31-0.167 0.434-0.292s0.224-0.271 0.292-0.434c0.068-0.163 0.103-0.337 0.103-0.513s-0.035-0.35-0.103-0.513c-0.068-0.162-0.167-0.31-0.292-0.434v0zM6.667 14.667c0-1.582 0.469-3.129 1.348-4.445s2.128-2.341 3.59-2.946c1.462-0.606 3.070-0.764 4.622-0.455s2.977 1.071 4.096 2.189c1.119 1.119 1.881 2.544 2.189 4.096s0.15 3.16-0.455 4.622-1.631 2.711-2.947 3.59c-1.316 0.879-2.862 1.348-4.445 1.348-2.122 0-4.157-0.843-5.657-2.343s-2.343-3.535-2.343-5.657z"></path>
</symbol>
<symbol id="icon-service1" viewBox="0 0 32 32">
<path fill="#f9d15c" style="fill: var(--color1, #f9d15c)" d="M13.176 0c7.277 0 13.176 5.899 13.176 13.176s-5.899 13.176-13.176 13.176c-7.277 0-13.176-5.899-13.176-13.176s5.899-13.176 13.176-13.176z"></path>
<path fill="#222" style="fill: var(--color2, #222)" d="M30.367 8.865h-16.661c-0.9 0-1.633 0.732-1.633 1.633v1.453l-1.579-1.579-2.675 2.675 1.214 1.214-3.386 5.319 3.438 5.375h-1.298c-1.008 0-1.828 0.82-1.828 1.828v1.999h9.111v-1.999c0-1.008-0.82-1.828-1.828-1.828h-2.299l-3.44-5.377 2.269-3.564c-0.076 1.108 0.307 2.242 1.152 3.088l0.649 0.649 0.499-0.499v3.48c0 0.9 0.732 1.633 1.633 1.633h4.67l-0.276 2.852h-1.291v1.565h10.456v-1.565h-1.291l-0.276-2.852h4.67c0.9 0 1.633-0.732 1.633-1.633v-12.234c0-0.9-0.732-1.633-1.633-1.633zM13.243 26.52c0.145 0 0.263 0.118 0.263 0.263v0.434h-5.981v-0.434c0-0.145 0.118-0.263 0.263-0.263h5.455zM11.103 13.311c-0.014 0.013-0.029 0.025-0.043 0.038-0.045 0.041-0.090 0.083-0.133 0.127-0.001 0.001-0.002 0.002-0.002 0.002s-0.002 0.002-0.002 0.002c-0.043 0.043-0.085 0.088-0.126 0.133-0.013 0.014-0.026 0.029-0.038 0.043-0.018 0.020-0.037 0.041-0.054 0.062l-0.671-0.671 0.462-0.462 0.671 0.671c-0.021 0.018-0.041 0.037-0.062 0.055zM11.636 17.477c-0.388-0.688-0.413-1.526-0.073-2.233 0.002-0.005 0.005-0.010 0.007-0.015 0.012-0.024 0.024-0.049 0.037-0.073 0.003-0.006 0.007-0.013 0.010-0.019 0.012-0.023 0.025-0.045 0.038-0.068 0.004-0.007 0.009-0.015 0.013-0.022 0.013-0.021 0.026-0.042 0.039-0.063 0.005-0.008 0.011-0.017 0.017-0.025 0.013-0.020 0.026-0.039 0.040-0.059 0.007-0.010 0.014-0.019 0.021-0.029 0.013-0.018 0.026-0.035 0.039-0.053 0.009-0.012 0.019-0.023 0.028-0.035 0.012-0.015 0.024-0.030 0.036-0.045s0.027-0.031 0.040-0.046c0.009-0.011 0.019-0.021 0.028-0.032 0.024-0.026 0.048-0.051 0.073-0.076 0.028-0.028 0.056-0.055 0.085-0.081 0.008-0.008 0.017-0.015 0.025-0.022 0.021-0.019 0.042-0.037 0.064-0.055 0.009-0.008 0.019-0.015 0.028-0.023 0.021-0.017 0.043-0.034 0.065-0.050 0.009-0.007 0.018-0.013 0.027-0.020 0.023-0.017 0.047-0.033 0.071-0.049 0.008-0.005 0.015-0.010 0.023-0.015 0.027-0.017 0.054-0.034 0.081-0.051 0.005-0.003 0.010-0.006 0.015-0.009 0.202-0.118 0.417-0.205 0.638-0.259 0.004-0.001 0.007-0.002 0.011-0.003 0.035-0.008 0.070-0.016 0.105-0.023 0.003-0.001 0.006-0.001 0.009-0.002 0.036-0.007 0.072-0.013 0.108-0.018 0.002-0 0.004-0.001 0.006-0.001 0.036-0.005 0.073-0.010 0.11-0.013 0.002-0 0.004-0 0.005-0.001 0.037-0.003 0.073-0.006 0.11-0.008 0.002-0 0.004-0 0.007-0 0.036-0.002 0.071-0.002 0.107-0.003 0.003 0 0.007-0 0.010-0 0.101 0 0.201 0.007 0.302 0.019 0.002 0 0.004 0.001 0.007 0.001 0.044 0.006 0.087 0.013 0.13 0.021 0.013 0.002 0.025 0.005 0.038 0.007 0.033 0.007 0.067 0.014 0.1 0.023 0.015 0.004 0.029 0.007 0.044 0.011 0.039 0.011 0.078 0.022 0.117 0.034 0.020 0.007 0.040 0.014 0.061 0.021 0.026 0.009 0.051 0.018 0.076 0.028 0.022 0.009 0.044 0.018 0.066 0.027 0.020 0.009 0.040 0.018 0.061 0.027 0.022 0.010 0.045 0.020 0.067 0.031s0.042 0.022 0.063 0.033c0.018 0.009 0.035 0.018 0.053 0.028l-3.287 3.287zM19.672 27.217l0.276-2.852h4.177l0.276 2.852h-4.728zM30.435 22.733c0 0.038-0.031 0.068-0.068 0.068h-16.661c-0.038 0-0.068-0.031-0.068-0.068v-1.457h16.797v1.457h-0zM30.435 19.711h-16.797v-2.023l3.561-3.561-0.649-0.649c-0.395-0.395-0.854-0.689-1.343-0.883-0.004-0.002-0.009-0.003-0.013-0.005-0.056-0.022-0.111-0.043-0.168-0.062-0.016-0.006-0.033-0.011-0.050-0.016-0.044-0.014-0.088-0.028-0.132-0.041-0.028-0.008-0.057-0.015-0.085-0.023-0.032-0.009-0.065-0.017-0.097-0.025-0.039-0.009-0.077-0.017-0.116-0.025-0.022-0.005-0.045-0.009-0.067-0.014-0.047-0.009-0.095-0.017-0.142-0.024-0.014-0.002-0.028-0.004-0.041-0.006-0.054-0.008-0.109-0.014-0.163-0.020-0.007-0.001-0.014-0.001-0.022-0.002-0.059-0.006-0.119-0.010-0.179-0.013-0.002-0-0.005-0-0.007-0-0.095-0.005-0.191-0.007-0.287-0.005v-1.817c0-0.038 0.031-0.068 0.068-0.068h16.661c0.038 0 0.068 0.031 0.068 0.068v9.212h0z"></path>
</symbol>
<symbol id="icon-service2" viewBox="0 0 32 32">
<path fill="#f9d15c" style="fill: var(--color1, #f9d15c)" d="M13.176 0c7.277 0 13.176 5.899 13.176 13.176s-5.899 13.176-13.176 13.176c-7.277 0-13.176-5.899-13.176-13.176s5.899-13.176 13.176-13.176z"></path>
<path fill="#222" style="fill: var(--color2, #222)" d="M19.566 10.701h-3.061c-0.433 0-0.772 0.354-0.772 0.772v10.995c0 0.426 0.346 0.772 0.772 0.772s0.772-0.346 0.772-0.772v-4.008c0.716-0.004 1.765-0.009 2.289-0.009 1.035 0 2.016-0.4 2.763-1.128 0.756-0.736 1.173-1.712 1.173-2.747s-0.416-2.011-1.173-2.747c-0.747-0.727-1.728-1.128-2.763-1.128zM19.566 16.907c-0.521 0-1.555 0.005-2.272 0.009-0.013-2.405-0.006-1.596-0.015-4.671h2.287c1.296 0 2.391 1.067 2.391 2.331s-1.095 2.331-2.391 2.331z"></path>
<path fill="#222" style="fill: var(--color2, #222)" d="M26.83 8.964c-2.139-2.139-4.982-3.317-8.007-3.317s-5.868 1.178-8.007 3.317c-6.217 6.217-3.264 16.935 5.33 19.012v2.738c0 0.71 0.577 1.287 1.287 1.287h2.779c0.71 0 1.287-0.577 1.287-1.287v-2.738c8.603-2.079 11.544-12.799 5.331-19.012zM19.956 30.456h-2.265v-2.218c0.751 0.075 1.514 0.075 2.265 0v2.218zM20.589 26.591c-5.953 1.086-11.545-3.453-11.545-9.621 0-5.392 4.387-9.779 9.779-9.779s9.779 4.387 9.779 9.779c0 4.721-3.362 8.772-8.014 9.621z"></path>
</symbol>
<symbol id="icon-service3" viewBox="0 0 32 32">
<path fill="#f9d15c" style="fill: var(--color1, #f9d15c)" d="M13.176 0c7.277 0 13.176 5.899 13.176 13.176s-5.899 13.176-13.176 13.176c-7.277 0-13.176-5.899-13.176-13.176s5.899-13.176 13.176-13.176z"></path>
<path fill="#222" style="fill: var(--color2, #222)" d="M18.772 29.658c0.938 0 1.699-0.76 1.699-1.699s-0.76-1.698-1.699-1.698c-0.938 0-1.699 0.76-1.699 1.698s0.76 1.699 1.699 1.699z"></path>
<path fill="#222" style="fill: var(--color2, #222)" d="M31.724 13.618c-3.383-3.63-7.964-5.629-12.9-5.629s-9.517 1.999-12.9 5.629c-0.388 0.416-0.365 1.067 0.051 1.455s1.067 0.365 1.455-0.051c2.989-3.207 7.036-4.974 11.394-4.974s8.404 1.766 11.394 4.974c0.203 0.217 0.478 0.328 0.753 0.328 0.251 0 0.503-0.092 0.702-0.276 0.416-0.388 0.439-1.039 0.051-1.455z"></path>
<path fill="#222" style="fill: var(--color2, #222)" d="M27.944 17.869c-2.501-2.52-5.74-3.907-9.12-3.907s-6.62 1.388-9.12 3.907c-0.4 0.404-0.398 1.055 0.006 1.456s1.055 0.398 1.456-0.006c2.111-2.127 4.831-3.299 7.659-3.299s5.548 1.171 7.659 3.299c0.201 0.203 0.466 0.304 0.731 0.304 0.262 0 0.524-0.1 0.725-0.299 0.403-0.401 0.406-1.052 0.005-1.456z"></path>
<path fill="#222" style="fill: var(--color2, #222)" d="M23.824 22.133c-1.339-1.327-3.259-2.151-5.010-2.151-0 0-0.001 0-0.001 0h-0.074c-0 0-0 0-0.001 0-1.751 0-3.671 0.824-5.010 2.151-0.404 0.4-0.407 1.052-0.007 1.456 0.201 0.203 0.466 0.305 0.731 0.305 0.262 0 0.524-0.099 0.724-0.298 0.953-0.945 2.351-1.555 3.561-1.555 0 0 0 0 0.001 0h0.075c0 0 0 0 0 0 1.21 0 2.608 0.61 3.561 1.555 0.404 0.4 1.056 0.397 1.456-0.007s0.397-1.056-0.007-1.456z"></path>
</symbol>
<symbol id="icon-service4" viewBox="0 0 32 32">
<path fill="#f9d15c" style="fill: var(--color1, #f9d15c)" d="M13.176 0c7.277 0 13.176 5.899 13.176 13.176s-5.899 13.176-13.176 13.176c-7.277 0-13.176-5.899-13.176-13.176s5.899-13.176 13.176-13.176z"></path>
<path fill="#222" style="fill: var(--color2, #222)" d="M12.596 10.331h12.456c0.426 0 0.772 0.346 0.772 0.772s-0.346 0.772-0.772 0.772h-4.684c-1.277 0-2.316 1.039-2.316 2.316v0.772h1.544v-0.772c0-0.426 0.346-0.772 0.772-0.772h4.684c1.277 0 2.316-1.039 2.316-2.316s-1.039-2.316-2.316-2.316h-12.456c-0.426 0-0.772-0.346-0.772-0.772v-0.772h-1.544v0.772c0 1.277 1.039 2.316 2.316 2.316z"></path>
<path fill="#222" style="fill: var(--color2, #222)" d="M26.477 24.228h2.435c1.703 0 3.088-1.385 3.088-3.088s-1.385-3.088-3.088-3.088h-1.544v-1.544h-17.088v3.912c0 1.98 0.67 3.852 1.881 5.353h-6.514v1.544h3.383l1.544 3.088h16.498l1.544-3.088h3.383v-1.544h-6.514c0.387-0.48 0.718-0.997 0.991-1.544zM28.912 19.596c0.851 0 1.544 0.693 1.544 1.544s-0.693 1.544-1.544 1.544h-1.847c0.198-0.728 0.302-1.488 0.302-2.265v-0.824h1.544zM11.824 20.419v-2.368h14v2.368c0 2.082-0.904 4.018-2.49 5.353h-9.020c-1.586-1.335-2.49-3.271-2.49-5.353zM26.118 28.86h-14.59l-0.772-1.544h16.134l-0.772 1.544z"></path>
</symbol>
<symbol id="icon-company1" viewBox="0 0 48 32">
<path fill="#ee2841" style="fill: var(--color1, #ee2841)" d="M41.512 14.585c-0.034 0-0.061-0.029-0.061-0.062v-0.415h-0.119c-0.029 0-0.054-0.024-0.054-0.054s0.025-0.054 0.054-0.054h0.36c0.028 0 0.053 0.024 0.053 0.054s-0.025 0.054-0.053 0.054h-0.119v0.415c0 0.033-0.027 0.062-0.060 0.062v0zM42.4 14.585c-0.033 0-0.060-0.029-0.060-0.062v-0.361l-0.155 0.401c-0.005 0.013-0.018 0.023-0.033 0.023s-0.027-0.009-0.032-0.023l-0.155-0.401v0.361c0 0.033-0.027 0.062-0.060 0.062-0.034 0-0.062-0.029-0.062-0.062v-0.429c0-0.056 0.045-0.101 0.099-0.101 0.043 0 0.079 0.027 0.093 0.066l0.116 0.302 0.117-0.302c0.013-0.038 0.050-0.066 0.092-0.066 0.055 0 0.1 0.045 0.1 0.101v0.429c0 0.033-0.027 0.062-0.061 0.062v-0zM9.906 13.816c0-0.208 0.065-0.4 0.174-0.56-0.329 0.097-0.571 0.398-0.571 0.758v0.635l0.397 0.020v-0.853zM9.509 18.184c0 0.36 0.242 0.661 0.571 0.758-0.11-0.16-0.174-0.352-0.174-0.56v-1.191h-0.397v0.993zM10.501 17.191h-0.397v1.191c0 0.36 0.242 0.661 0.571 0.758-0.109-0.16-0.174-0.352-0.174-0.56v-1.39zM10.501 13.618c0-0.208 0.065-0.4 0.174-0.56-0.329 0.097-0.571 0.398-0.571 0.758v0.864l0.397 0.020v-1.082zM6.025 13.364c-0.29 0.173-0.487 0.487-0.487 0.85v3.772c0 0.363 0.197 0.677 0.487 0.85-0.060-0.144-0.090-0.297-0.090-0.453v-4.566c0-0.16 0.032-0.313 0.090-0.453v0zM6.531 13.419c0-0.16 0.032-0.313 0.090-0.453-0.29 0.173-0.487 0.487-0.487 0.85v4.566c0 0.427 0.27 0.787 0.648 0.927-0.157-0.202-0.252-0.454-0.252-0.729v-5.161z"></path>
<path fill="#ee2841" style="fill: var(--color1, #ee2841)" d="M11.494 12.824c-0.438 0-0.794 0.355-0.794 0.794v1.29l-1.985-0.099v-1.39c0-0.548-0.444-0.992-0.993-0.992s-0.992 0.444-0.992 0.992v5.161c0 0.548 0.444 0.992 0.992 0.992s0.993-0.444 0.993-0.992v-1.588h1.985v1.588c0 0.438 0.355 0.794 0.794 0.794s0.794-0.355 0.794-0.794v-4.963c0-0.438-0.355-0.794-0.794-0.794v-0zM18.348 17.658v-1.47h-2.144v1.47c0 0.157-0.128 0.29-0.285 0.29-0.162 0-0.296-0.133-0.296-0.29v-3.353c0-0.157 0.134-0.29 0.291-0.29 0.162 0 0.29 0.133 0.29 0.29v1.366h2.144v-1.366c0-0.157 0.128-0.29 0.291-0.29s0.29 0.133 0.29 0.29v3.353c0 0.157-0.128 0.29-0.29 0.29s-0.291-0.133-0.291-0.29zM19.339 16.514c0-0.808 0.546-1.47 1.418-1.47 0.877 0 1.418 0.662 1.418 1.47 0 0.814-0.54 1.476-1.418 1.476-0.871 0-1.418-0.662-1.418-1.476v0zM21.629 16.514c0-0.529-0.308-1.005-0.872-1.005-0.558 0-0.871 0.476-0.871 1.005 0 0.534 0.313 1.011 0.871 1.011 0.564 0 0.872-0.477 0.872-1.011zM25.215 15.043c0.843 0 1.366 0.657 1.366 1.395 0 0.157-0.111 0.25-0.308 0.25h-1.912c0.041 0.476 0.39 0.872 0.953 0.872 0.238 0 0.488-0.076 0.697-0.227 0.029-0.023 0.070-0.029 0.116-0.029 0.116 0 0.209 0.093 0.209 0.209 0 0.075-0.035 0.133-0.093 0.174-0.279 0.203-0.611 0.302-0.982 0.302-0.837 0-1.453-0.593-1.453-1.476 0-0.813 0.587-1.47 1.406-1.47v0zM24.355 16.31h1.714c-0.012-0.372-0.262-0.837-0.854-0.837-0.564 0-0.831 0.453-0.86 0.837zM26.914 17.687v-3.411c0-0.145 0.116-0.261 0.262-0.261 0.139 0 0.261 0.116 0.261 0.261v3.411c0 0.145-0.122 0.262-0.261 0.262-0.034 0-0.069-0.006-0.1-0.020s-0.061-0.032-0.085-0.057c-0.024-0.024-0.044-0.053-0.057-0.085s-0.020-0.066-0.020-0.1zM27.773 17.49c0-0.128 0.099-0.227 0.227-0.227 0.047 0 0.093 0.018 0.128 0.041 0.215 0.157 0.494 0.267 0.79 0.267 0.395 0 0.604-0.162 0.604-0.401 0-0.279-0.319-0.372-0.68-0.453-0.476-0.111-1.034-0.239-1.034-0.843 0-0.447 0.383-0.831 1.069-0.831 0.39 0 0.697 0.116 0.936 0.29 0.052 0.041 0.093 0.099 0.093 0.174 0 0.116-0.099 0.215-0.215 0.215-0.041 0-0.087-0.017-0.116-0.041-0.18-0.133-0.424-0.215-0.691-0.215-0.354 0-0.576 0.139-0.576 0.366 0 0.244 0.302 0.325 0.651 0.407 0.488 0.11 1.069 0.244 1.069 0.889 0 0.482-0.395 0.86-1.133 0.86-0.39 0-0.738-0.099-1.023-0.314-0.058-0.041-0.099-0.11-0.099-0.186zM30.713 17.257c0.198 0 0.366 0.163 0.366 0.36s-0.168 0.366-0.366 0.366-0.36-0.168-0.36-0.366c0-0.198 0.163-0.36 0.36-0.36zM33.795 16.514c0-0.808 0.546-1.47 1.418-1.47 0.877 0 1.418 0.662 1.418 1.47 0 0.814-0.54 1.476-1.418 1.476-0.872 0-1.418-0.662-1.418-1.476v0zM36.084 16.514c0-0.529-0.308-1.005-0.872-1.005-0.558 0-0.872 0.476-0.872 1.005 0 0.534 0.314 1.011 0.872 1.011 0.564 0 0.872-0.477 0.872-1.011zM40.957 15.892v1.796c0 0.145-0.122 0.261-0.267 0.261-0.14 0-0.256-0.116-0.256-0.261v-1.639c0-0.325-0.146-0.482-0.488-0.482-0.285 0-0.564 0.32-0.698 0.524v1.597c0 0.034-0.006 0.068-0.020 0.1s-0.032 0.061-0.057 0.085c-0.024 0.024-0.053 0.044-0.085 0.057s-0.066 0.020-0.1 0.020c-0.14 0-0.262-0.116-0.262-0.261v-1.639c0-0.325-0.139-0.482-0.494-0.482-0.273 0-0.546 0.34-0.686 0.543v1.578c0 0.145-0.122 0.261-0.261 0.261-0.145 0-0.261-0.116-0.261-0.261v-2.342c0-0.145 0.116-0.262 0.256-0.262 0.145 0 0.267 0.116 0.267 0.262v0.162c0.116-0.174 0.488-0.465 0.906-0.465 0.425 0 0.675 0.221 0.762 0.523 0.163-0.262 0.542-0.523 0.955-0.523 0.517 0 0.788 0.285 0.788 0.848z"></path>
<path fill="#ee2841" style="fill: var(--color1, #ee2841)" d="M32.647 15.043c0.401 0 0.68 0.128 0.895 0.325 0.046 0.041 0.081 0.11 0.081 0.174 0 0.133-0.105 0.238-0.232 0.238-0.064 0-0.116-0.024-0.157-0.058-0.163-0.151-0.343-0.215-0.564-0.215-0.552 0-0.907 0.424-0.907 1.005s0.355 0.993 0.907 1.011c0.372 0.013 0.748-0.258 1.049-0.734 0.037-0.059 0.092-0.169 0.138-0.226 0.085-0.108 0.146-0.056 0.196-0.004 0.092 0.096 0.092 0.325 0.031 0.438-0.169 0.316-0.312 0.463-0.474 0.622-0.226 0.219-0.563 0.369-0.964 0.369-0.848 0-1.429-0.633-1.429-1.476s0.581-1.47 1.429-1.47v0zM24.182 17.489c0 0.099-0.283 0.32-0.486 0.419-0.116 0.056-0.233 0.081-0.401 0.081-0.442 0-0.668-0.25-0.668-0.691v-1.726h-0.267c-0.122 0-0.233-0.105-0.233-0.233 0-0.122 0.111-0.227 0.233-0.227h0.267v-0.534c-0-0.034 0.007-0.069 0.020-0.1s0.032-0.061 0.057-0.085c0.024-0.024 0.053-0.044 0.085-0.057s0.066-0.020 0.1-0.020c0.139 0 0.261 0.116 0.261 0.262v0.534h0.366c0.127 0 0.232 0.105 0.232 0.227 0 0.128-0.105 0.233-0.232 0.233h-0.366v1.609c0 0.198 0.093 0.343 0.273 0.343 0.32 0 0.571-0.497 0.713-0.497 0.133 0 0.047 0.334 0.047 0.462z"></path>
</symbol>
<symbol id="icon-company2" viewBox="0 0 48 32">
<path fill="#4b77a9" style="fill: var(--color2, #4b77a9)" d="M24.558 16.567l-1.401-3.522-1.393 3.499c0.931-0.030 1.863-0.023 2.794 0.023zM36.184 20.139c-3.002-1.305-6.378-2.272-10.345-2.599l1.208 2.934h-0.935l-1.192-2.997c-1.17-0.066-2.343-0.076-3.514-0.028l-1.204 3.025h-0.936l1.225-2.976c-4.208 0.276-7.792 1.273-10.939 2.64v-0.185c2.101-1.173 4.179-2.048 6.421-2.62v-1.801l-2.526-3.878h0.938l2.004 3.222 2.005-3.222h0.937l-2.525 3.877-0.001 1.603c1.284-0.279 2.625-0.463 4.060-0.55l2.082-5.059h0.417l2.098 5.099c1.408 0.113 2.728 0.32 3.994 0.623v-4.919h-2.064v-0.675h4.981v0.675h-2.063v5.141c2.035 0.568 3.945 1.395 5.872 2.484v0.184zM39.522 11.655h-4.981v0.675h2.064v6.080h0.854v-6.080h2.063v-0.675zM10.929 18.41l-0.854 0.001v-3.333h-3.683v3.333h-0.854v-6.755h0.854v2.749h3.683v-2.749h0.854v6.755zM41.775 12.181c-0.041-0.024-0.107-0.036-0.197-0.036h-0.139v0.338h0.147c0.070 0 0.121-0.008 0.156-0.021 0.029-0.011 0.055-0.031 0.072-0.057s0.026-0.057 0.024-0.089c0-0.068-0.021-0.113-0.063-0.136zM41.599 12.035c0.114 0 0.199 0.011 0.253 0.033 0.096 0.040 0.144 0.119 0.144 0.236 0 0.082-0.030 0.144-0.090 0.184-0.041 0.024-0.087 0.039-0.135 0.044 0.074 0.011 0.126 0.042 0.161 0.091 0.030 0.042 0.048 0.093 0.050 0.145v0.068c0 0.022 0.001 0.045 0.002 0.069 0 0.017 0.003 0.033 0.008 0.049l0.006 0.011h-0.152l-0.003-0.009c-0.001-0.003-0.001-0.008-0.002-0.011l-0.004-0.030v-0.074c0-0.107-0.030-0.178-0.088-0.212-0.036-0.020-0.095-0.030-0.182-0.030h-0.128v0.366h-0.164v-0.928h0.325zM41.101 11.987c-0.068 0.067-0.123 0.147-0.159 0.236s-0.054 0.184-0.053 0.28c0 0.202 0.070 0.375 0.211 0.518 0.067 0.069 0.146 0.124 0.235 0.161s0.184 0.055 0.28 0.053c0.202 0 0.373-0.071 0.515-0.214s0.212-0.316 0.212-0.518c0.002-0.096-0.016-0.191-0.053-0.28s-0.090-0.169-0.159-0.236c-0.067-0.069-0.147-0.123-0.236-0.16s-0.184-0.055-0.28-0.053c-0.095-0.001-0.19 0.017-0.278 0.053s-0.168 0.091-0.235 0.16l-0 0zM42.213 13.101c-0.077 0.081-0.17 0.144-0.273 0.187s-0.214 0.064-0.325 0.062c-0.234 0-0.434-0.082-0.598-0.249-0.079-0.078-0.142-0.172-0.184-0.275s-0.063-0.213-0.061-0.325c0-0.232 0.083-0.432 0.248-0.597s0.363-0.247 0.596-0.247c0.235 0 0.434 0.082 0.598 0.247 0.080 0.077 0.144 0.17 0.187 0.272s0.064 0.213 0.062 0.324c0 0.233-0.082 0.433-0.248 0.599z"></path>
</symbol>
<symbol id="icon-company3" viewBox="0 0 48 32">
<path fill="#0e7755" style="fill: var(--color3, #0e7755)" d="M16.87 24.35v-0.278h-1.007v-1.975h-0.318v2.253h1.325z"></path>
<path fill="#0e7755" style="fill: var(--color3, #0e7755)" d="M36.776 22.362v1.988h0.318v-1.988h0.769v-0.265h-1.855v0.265h0.769z"></path>
<path fill="#0e7755" style="fill: var(--color3, #0e7755)" d="M38.512 23.846c0 0 0.239 0.239 0.57 0.239 0.212 0 0.384-0.119 0.384-0.331 0-0.49-1.087-0.384-1.087-1.073 0-0.345 0.305-0.623 0.729-0.623s0.636 0.225 0.636 0.225l-0.146 0.265c0 0-0.212-0.199-0.49-0.199-0.239 0-0.411 0.146-0.411 0.331 0 0.464 1.087 0.345 1.087 1.073 0 0.345-0.265 0.636-0.716 0.636-0.477 0-0.742-0.292-0.742-0.292l0.186-0.252z"></path>
<path fill="#0e7755" style="fill: var(--color3, #0e7755)" d="M7.884 13.111h-2.346v6.719h0.769v-2.584h1.577c1.259 0 2.094-0.835 2.094-2.081 0-1.232-0.848-2.054-2.094-2.054zM6.307 13.813h1.498c0.861 0 1.392 0.517 1.392 1.352 0 0.848-0.53 1.378-1.405 1.378h-1.484v-2.73z"></path>
<path fill="#0e7755" style="fill: var(--color3, #0e7755)" d="M13.543 13.111l-2.465 6.719h0.808l0.755-2.107h2.571l0.755 2.107h0.808l-2.452-6.719h-0.782zM14.935 17.087l-2.107-0.066 0.928-2.293c0.080-0.199 0.172-0.49 0.225-0.689 0.040 0.186 0.119 0.49 0.186 0.689l0.769 2.359z"></path>
<path fill="#0e7755" style="fill: var(--color3, #0e7755)" d="M21.747 16.875c0.742-0.239 1.219-0.941 1.219-1.816 0-0.808-0.384-1.471-1.034-1.749-0.265-0.119-0.57-0.186-1.259-0.186h-2.001v6.719h0.769v-2.783h1.577l1.498 2.783h0.875l-1.484-2.743c-0.080-0.106-0.119-0.186-0.159-0.225zM22.198 15.072c0 0.795-0.477 1.286-1.246 1.286h-1.511v-2.545h1.272c0.517 0 0.729 0.053 0.914 0.159 0.371 0.186 0.57 0.583 0.57 1.1z"></path>
<path fill="#0e7755" style="fill: var(--color3, #0e7755)" d="M28.983 13.111l-1.776 2.876h-1.034v-2.876h-0.769v6.719h0.769v-3.154h1.034l1.882 3.154h0.901l-2.147-3.525 2.014-3.194h-0.875z"></path>
<path fill="#0e7755" style="fill: var(--color3, #0e7755)" d="M5.856 23.077v-0.981h-0.318v2.253h0.318v-0.994h1.166v0.994h0.318v-2.253h-0.318v0.981h-1.166z"></path>
<path fill="#0e7755" style="fill: var(--color3, #0e7755)" d="M9.276 22.057c0.649 0 1.153 0.504 1.153 1.153 0 0.663-0.504 1.18-1.153 1.18s-1.153-0.517-1.153-1.18c0-0.649 0.504-1.153 1.153-1.153zM9.276 24.098c0.464 0 0.835-0.384 0.835-0.888 0-0.49-0.371-0.861-0.835-0.861s-0.835 0.371-0.835 0.861c0 0.504 0.384 0.888 0.835 0.888z"></path>
<path fill="#0e7755" style="fill: var(--color3, #0e7755)" d="M11.661 22.362v1.988h0.318v-1.988h0.782v-0.265h-1.869v0.265h0.769z"></path>
<path fill="#0e7755" style="fill: var(--color3, #0e7755)" d="M14.763 24.35v-0.278h-1.047v-0.729h0.808v-0.265h-0.808v-0.716h0.994v-0.265h-1.312v2.253h1.365z"></path>
<path fill="#0e7755" style="fill: var(--color3, #0e7755)" d="M17.559 23.846c0 0 0.239 0.239 0.57 0.239 0.212 0 0.384-0.119 0.384-0.331 0-0.49-1.087-0.384-1.087-1.073 0-0.345 0.305-0.623 0.729-0.623s0.636 0.225 0.636 0.225l-0.146 0.265c0 0-0.212-0.199-0.49-0.199-0.239 0-0.411 0.146-0.411 0.331 0 0.464 1.087 0.345 1.087 1.073 0 0.345-0.265 0.636-0.716 0.636-0.477 0-0.742-0.292-0.742-0.292l0.186-0.252z"></path>
<path fill="#0e7755" style="fill: var(--color3, #0e7755)" d="M21.217 23.13c0 0-0.292-0.106-0.292-0.504 0-0.371 0.292-0.583 0.689-0.583 0.119 0 0.278 0.040 0.278 0.040l-0.080 0.252c0 0-0.093-0.013-0.172-0.013-0.225 0-0.398 0.119-0.398 0.345 0 0.146 0.066 0.358 0.411 0.358h0.424v-0.305h0.305v0.305h0.305v0.278h-0.305v0.305c0 0.504-0.292 0.795-0.782 0.795-0.464 0-0.782-0.292-0.782-0.676 0-0.265 0.146-0.504 0.398-0.596zM21.601 24.098c0.292 0 0.464-0.159 0.464-0.517v-0.292h-0.437c-0.318 0-0.504 0.146-0.504 0.398 0.013 0.225 0.199 0.411 0.477 0.411z"></path>
<path fill="#0e7755" style="fill: var(--color3, #0e7755)" d="M24.411 22.097h0.689c0.239 0 0.331 0.013 0.424 0.053 0.225 0.080 0.384 0.318 0.384 0.61s-0.159 0.53-0.411 0.61c0 0 0.026 0.027 0.066 0.106l0.477 0.875h-0.358l-0.477-0.901h-0.477v0.901h-0.318v-2.253zM25.179 23.17c0.252 0 0.398-0.159 0.398-0.411 0-0.172-0.066-0.278-0.186-0.345-0.066-0.026-0.133-0.053-0.305-0.053h-0.358v0.808h0.451z"></path>
<path fill="#0e7755" style="fill: var(--color3, #0e7755)" d="M28.135 24.35v-0.278h-1.047v-0.729h0.808v-0.265h-0.808v-0.716h0.994v-0.265h-1.312v2.253h1.365z"></path>
<path fill="#0e7755" style="fill: var(--color3, #0e7755)" d="M35.756 18.743v-1.378l1.020 0.504v1.378l-1.020-0.504zM37.094 17.869l1.020-0.504v1.378l-1.020 0.504v-1.378zM34.417 18.067v-1.378l1.020 0.504v1.378l-1.020-0.504zM38.433 17.206l1.020-0.504v1.378l-1.020 0.504v-1.378zM33.078 17.405v-1.378l1.020 0.504v1.378l-1.020-0.504zM39.771 16.53l1.020-0.504v1.378l-1.020 0.504v-1.378zM35.756 17.007v-1.378l1.020 0.504v1.378l-1.020-0.504zM37.094 16.146l1.020-0.504v1.378l-1.020 0.504v-1.378zM31.74 16.729v-1.365l1.021 0.504v1.378l-1.021-0.517zM41.123 15.867l1.020-0.504v1.378l-1.020 0.504v-1.378zM34.417 16.345v-1.378l1.020 0.504v1.378l-1.020-0.504zM38.433 15.47l1.020-0.504v1.378l-1.020 0.504v-1.378zM33.078 15.669v-1.365l1.020 0.504v1.378l-1.020-0.517zM39.771 14.807l1.020-0.504v1.378l-1.020 0.504v-1.378zM35.756 15.284v-1.378l1.020 0.504v1.378l-1.020-0.504zM37.094 14.41l1.020-0.504v1.378l-1.020 0.504v-1.378zM31.74 15.006v-1.378l1.021 0.504v1.378l-1.021-0.504zM41.123 14.145l1.020-0.504v1.378l-1.020 0.504v-1.378zM34.417 14.608v-1.378l1.020 0.504v1.378l-1.020-0.504zM38.433 13.747l1.020-0.504v1.378l-1.020 0.504v-1.378zM33.078 13.946v-1.378l1.020 0.504v1.378l-1.020-0.504zM39.771 13.071l1.020-0.504v1.378l-1.020 0.504v-1.378zM35.756 13.548v-1.378l1.020 0.504v1.378l-1.020-0.504zM37.094 12.687l1.020-0.504v1.378l-1.020 0.504v-1.378zM34.417 12.886v-1.378l1.020 0.504v1.378l-1.020-0.504zM38.433 12.011l1.020-0.504v1.378l-1.020 0.504v-1.378zM33.078 12.21v-1.378l1.020 0.504v1.378l-1.020-0.504zM39.771 11.348l1.020-0.504v1.378l-1.020 0.504v-1.378zM35.756 11.812v-1.365l1.020 0.504v1.378l-1.020-0.517zM37.094 10.951l1.020-0.504v1.378l-1.020 0.504v-1.378zM34.417 11.149v-1.378l1.020 0.504v1.378l-1.020-0.504zM38.433 10.288l1.020-0.504v1.378l-1.020 0.504v-1.378zM35.756 10.089v-1.378l1.020 0.504v1.378l-1.020-0.504zM37.094 9.228l1.020-0.504v1.378l-1.020 0.504v-1.378zM35.954 8.459l0.981-0.49 0.981 0.49-0.981 0.49-0.981-0.49zM36.935 7.611l-1.498 0.742v1.577l-1.339-0.663v1.736l-1.339-0.663v3.459l-1.339-0.663v3.817l5.367 2.677v1.63h0.318v-1.657l5.368-2.677v-3.817l-1.339 0.663v-3.446l-1.339 0.663v-1.723l-1.339 0.663v-1.577l-1.524-0.742z"></path>
<path fill="#0e7755" style="fill: var(--color3, #0e7755)" d="M28.93 23.846c0 0 0.239 0.239 0.57 0.239 0.212 0 0.384-0.119 0.384-0.331 0-0.49-1.087-0.384-1.087-1.073 0-0.345 0.305-0.623 0.729-0.623s0.636 0.225 0.636 0.225l-0.146 0.265c0 0-0.212-0.199-0.49-0.199-0.239 0-0.411 0.146-0.411 0.331 0 0.464 1.087 0.345 1.087 1.073 0 0.345-0.265 0.636-0.716 0.636-0.477 0-0.742-0.292-0.742-0.292l0.186-0.252z"></path>
<path fill="#0e7755" style="fill: var(--color3, #0e7755)" d="M31.992 22.057c0.649 0 1.153 0.504 1.153 1.153 0 0.663-0.504 1.18-1.153 1.18s-1.153-0.517-1.153-1.18c0-0.649 0.504-1.153 1.153-1.153zM31.992 24.098c0.464 0 0.835-0.384 0.835-0.888 0-0.49-0.371-0.861-0.835-0.861s-0.835 0.371-0.835 0.861c0 0.504 0.371 0.888 0.835 0.888z"></path>
<path fill="#0e7755" style="fill: var(--color3, #0e7755)" d="M33.927 22.097h0.689c0.239 0 0.332 0.013 0.424 0.053 0.226 0.080 0.384 0.318 0.384 0.61s-0.159 0.53-0.411 0.61c0 0 0.026 0.027 0.066 0.106l0.477 0.875h-0.358l-0.477-0.901h-0.477v0.901h-0.318v-2.253zM34.695 23.17c0.252 0 0.397-0.159 0.397-0.411 0-0.172-0.066-0.278-0.186-0.345-0.066-0.026-0.132-0.053-0.305-0.053h-0.358v0.808h0.451z"></path>
</symbol>
<symbol id="icon-company4" viewBox="0 0 48 32">
<path fill="#eb0029" style="fill: var(--color4, #eb0029)" d="M10.968 12.144v7.712h2.285v-5.998l-2.285-1.714zM10.063 12.821v7.035h0.475v-7.396l-0.475 0.361zM9.158 19.856h0.475v-6.697l-0.475 0.338v6.359zM8.253 19.856h0.475v-6.021l-0.475 0.361v5.66zM13.683 15.594v4.262h2.285v-2.548l-2.285-1.714zM7.348 16.271v3.585h0.475v-3.924l-0.475 0.338zM6.443 19.856h0.475v-3.247l-0.475 0.338v2.909zM5.538 19.856h0.475v-2.571l-0.475 0.361v2.21z"></path>
<path fill="#717271" style="fill: var(--color5, #717271)" d="M21.85 16.428c-0.678 0-1.108-0.383-1.108-1.127v-1.443h0.565v1.443c0 0.406 0.204 0.631 0.566 0.631 0.339 0 0.543-0.226 0.543-0.631v-1.443h0.566v1.421c0 0.789-0.453 1.15-1.132 1.15zM24.656 16.428c-0.384 0-0.769-0.135-1.063-0.406l0.317-0.383c0.226 0.18 0.475 0.293 0.769 0.293 0.226 0 0.362-0.090 0.362-0.226v-0.023c0-0.135-0.090-0.203-0.52-0.316-0.498-0.135-0.838-0.293-0.838-0.789 0-0.474 0.362-0.767 0.883-0.767 0.385 0 0.701 0.113 0.95 0.316l-0.294 0.428c-0.203-0.158-0.43-0.248-0.656-0.248-0.204 0-0.317 0.090-0.317 0.225 0 0.158 0.113 0.226 0.543 0.338 0.521 0.135 0.815 0.316 0.815 0.767 0 0.519-0.385 0.789-0.951 0.789zM27.959 16.406v-1.037h-1.041v1.037h-0.565v-2.548h0.565v0.992h1.041v-0.992h0.566v2.548l-0.566 0zM37.688 16.406l-1.199-1.601v1.601h-0.543v-2.548h0.52l1.2 1.623v-1.624h0.543v2.548l-0.521 0zM26.715 19.856l-0.792-1.082-0.294 0.316v0.767h-0.566v-2.548h0.566v1.127l1.041-1.127h0.678l-1.041 1.082 1.087 1.466h-0.679zM28.027 19.856v-2.548h1.901v0.496h-1.358v0.519h1.2v0.496h-1.2v0.541h1.381v0.496h-1.924zM33.457 19.856h0.543v-2.548h-0.543v2.548zM34.837 19.856v-2.548h1.9v0.496h-1.335v0.519h1.176v0.496h-1.176v0.541h1.357v0.496h-1.923zM37.598 19.856v-2.548h0.565v2.052h1.268v0.496h-1.833zM41.104 19.856h-0.996v-2.548h0.996c0.815 0 1.358 0.564 1.358 1.263v0.023c0 0.722-0.543 1.263-1.358 1.263zM41.874 18.593c0-0.451-0.317-0.767-0.77-0.767h-0.43v1.533h0.43c0.453 0 0.77-0.316 0.77-0.767zM19.091 15.932c-0.476 0-0.792-0.361-0.792-0.789v-0.023c0-0.428 0.294-0.789 0.746-0.789 0.249-0.023 0.476 0.090 0.634 0.271l0.362-0.428c-0.249-0.225-0.588-0.383-0.996-0.361-0.792 0-1.357 0.609-1.335 1.33 0.023 0.744 0.589 1.308 1.381 1.285 0.407 0 0.769-0.18 0.995-0.451l-0.384-0.361c-0.136 0.18-0.362 0.293-0.611 0.316v0zM31.375 13.858h0.611v2.548h-0.543v-1.669l-0.724 1.082h-0.022l-0.725-1.082v1.669h-0.52v-2.548h0.588l0.679 1.060 0.656-1.060zM33.684 13.858l-1.086 2.548h0.588l0.226-0.586h1.086l0.227 0.586h0.588l-1.086-2.548-0.543-0zM33.616 15.324l0.339-0.812 0.34 0.812h-0.679zM22.823 17.308l-1.086 2.548h0.566l0.249-0.564h1.064l0.248 0.564h0.566l-1.086-2.548-0.521-0zM22.733 18.796l0.339-0.834 0.34 0.834h-0.679zM31.308 17.826v0.541h1.199v0.519h-1.199v0.97h-0.566v-2.548h1.945v0.519h-1.38zM21.127 17.308l-0.588 1.781-0.588-1.781h-0.544l-0.588 1.781-0.588-1.781h-0.611l0.927 2.548h0.566l0.566-1.736 0.588 1.736h0.543l0.928-2.548-0.611-0zM41.783 15.774l0.294-0.338-0.339-0.361-0.272 0.293-0.317-0.383c0.204-0.113 0.34-0.338 0.34-0.564-0.023-0.361-0.294-0.609-0.656-0.609-0.181 0-0.34 0.068-0.453 0.18s-0.181 0.271-0.181 0.451c0.023 0.203 0.136 0.361 0.226 0.474-0.294 0.113-0.52 0.428-0.498 0.744 0.023 0.428 0.385 0.789 0.837 0.789 0.249 0 0.52-0.135 0.701-0.338l0.227 0.293h0.656l-0.566-0.631zM41.172 15.752c-0.136 0.158-0.271 0.226-0.407 0.226-0.181 0-0.34-0.135-0.34-0.338-0.022-0.113 0.068-0.271 0.317-0.383l0.43 0.496zM40.855 14.692c-0.068-0.068-0.158-0.158-0.181-0.248 0-0.090 0.045-0.18 0.181-0.203 0.113 0 0.181 0.090 0.181 0.203s-0.113 0.203-0.181 0.248z"></path>
</symbol>
<symbol id="icon-company5" viewBox="0 0 48 32">
<path fill="#213e99" style="fill: var(--color6, #213e99)" d="M26.996 13.025c0 0.392-0.099 0.846-0.387 1.248h0.813v-6.276h-2.598v2.564c1.405 0.436 2.172 1.336 2.172 2.464z"></path>
<path fill="#213e99" style="fill: var(--color6, #213e99)" d="M22.505 10.337c0.586 0 1.131 0.137 1.549 0.248-0.884-0.156-2.254 0.069-2.962 0.628v3.060h2.599v-3.482c0.446 0.081 0.87 0.253 1.246 0.506v2.976h0.565c-0.531 0.6-1.525 0.965-2.381 0.831v0.126c2.469 0.195 3.516-0.977 3.516-2.295 0-1.553-1.456-2.461-2.945-2.645v-2.292h-2.599v2.318c-1.683 0.337-3.33 1.336-3.33 2.993 0 2.549 3.561 4.128 6.663 4.128 4.71 0 8.335-2.276 8.335-5.473 0-3.868-5.233-6.629-9.344-6.629-4.71 0-8.179 2.992-8.179 6.189 0 1.655 0.93 3.042 2.102 4.009l0.088-0.060c-0.928-0.771-1.765-1.972-1.765-3.624 0.245-3.498 4.556-5.469 8.394-5.469 2.713 0 7.588 0.627 7.588 5.164 0 2.366-2.529 5.444-7.841 5.444-2.72 0-4.832-1.456-4.832-3.551 0-1.812 1.419-3.1 3.534-3.1zM12.442 26.54v-0.358h0.911v-3.091h-2.433v3.091h0.934v0.358h-3.355v-0.358h0.853v-6.295h-0.852v-0.358h3.355v0.358h-0.934v2.79h2.433v-2.79h-0.911v-0.358h3.321v0.358h-0.854v6.295h0.854v0.358h-3.321zM17.050 19.53h1.522v0.831h-1.522v-0.831zM16.301 26.54v-0.358h0.818v-4.311h-0.818v-0.358h2.329v4.669h0.762v0.358h-3.090zM19.719 26.54v-0.358h0.841v-7.217h-0.841v-0.357h2.363v7.574h0.795v0.358h-3.158zM25.246 26.54c-0.83 0-1.279-0.427-1.279-1.084v-3.585h-0.819v-0.358h0.819v-1.994c0.462 0 0.945 0.010 1.418 0v1.994h1.176v0.358h-1.176v4.311h1.2v0.358h-1.339zM32.44 23.911c-0.127-1.902-1.717-2.559-2.814-2.559-1.233 0-2.893 0.772-2.893 2.64 0 1.35 0.991 2.675 2.928 2.675 1.741 0 2.457-1.165 2.629-1.638 0.138-0.345 0.173-0.749 0.149-1.118zM29.626 26.378c-0.53 0-0.852-0.265-1.003-0.553-0.092-0.173-0.218-0.426-0.218-1.856 0-1.061 0.023-2.283 1.21-2.283 0.473 0 0.83 0.196 1.026 0.635 0.069 0.161 0.15 0.323 0.161 1.602 0.011 1.177 0.011 2.456-1.176 2.456zM36.503 26.54v-0.358h0.669v-2.963c0-0.669 0-1.325-0.738-1.325-0.415 0-1.095 0.414-1.257 1.095-0.058 0.207-0.046 0.427-0.046 0.979v2.214h0.761v0.358h-3.089v-0.358h0.818v-4.311h-0.818v-0.358h2.328v0.761c0.254-0.323 0.462-0.554 0.957-0.749 0.289-0.121 0.598-0.184 0.911-0.184 0.092 0 0.368 0 0.691 0.092 0.969 0.288 1.015 1.026 1.015 1.557v3.193h0.795v0.358h-2.997z"></path>
</symbol>
<symbol id="icon-header-menu" viewBox="0 0 32 32">
<path d="M29.4 14.667h-21.467c-0.7 0-1.267 0.567-1.267 1.267v0.133c0 0.7 0.567 1.267 1.267 1.267h21.467c0.7 0 1.267-0.567 1.267-1.267v-0.133c0-0.7-0.567-1.267-1.267-1.267z"></path>
<path d="M24.067 21.333h-21.467c-0.7 0-1.267 0.567-1.267 1.267v0.133c0 0.7 0.567 1.267 1.267 1.267h21.467c0.7 0 1.267-0.567 1.267-1.267v-0.133c0-0.7-0.567-1.267-1.267-1.267z"></path>
<path d="M24.067 8h-21.467c-0.7 0-1.267 0.567-1.267 1.267v0.133c0 0.7 0.567 1.267 1.267 1.267h21.467c0.7 0 1.267-0.567 1.267-1.267v-0.133c0-0.7-0.567-1.267-1.267-1.267z"></path>
</symbol>
<symbol id="icon-burger" viewBox="0 0 32 32">
<path d="M6.4 11.734v-2.134h19.2v2.134h-19.2zM6.4 17.066h19.2v-2.133h-19.2v2.133zM6.4 22.4h19.2v-2.134h-19.2v2.134z"></path>
</symbol>
<symbol id="icon-cross" viewBox="0 0 32 32">
<path d="M23.734 10.304l-1.504-1.504-5.963 5.962-5.962-5.962-1.504 1.504 5.962 5.962-5.962 5.963 1.504 1.504 5.962-5.963 5.963 5.963 1.504-1.504-5.963-5.963 5.963-5.962z"></path>
</symbol>
</symbol></defs></svg>